<svg width="216" height="443" viewBox="0 0 216 443" fill="none" xmlns="http://www.w3.org/2000/svg">
<path d="M382.346 268.707L381.789 268.796V269.36V333.701C381.789 354.711 381.642 373.406 381.347 389.788C381.051 406.177 380.912 419.419 380.928 429.513V444.819H302.787V400.356V398.46L301.608 399.944C285.948 419.659 265.135 434.651 241.477 443.26L241.477 443.26C218.339 451.699 193.905 456.032 169.276 456.064C148.866 456.012 128.574 452.971 109.045 447.038L109.04 447.036C89.5232 441.292 71.1838 432.121 54.8786 419.952C38.8399 407.937 25.6416 392.538 16.2204 374.849L16.218 374.845C6.43806 356.815 1.53688 335.775 1.53688 311.704C1.53688 287.058 5.69875 265.833 13.9975 248.011L14.0003 248.005C21.713 230.982 33.4677 216.101 48.2417 204.658C63.6225 193.13 81.158 184.803 99.8115 180.169L99.8133 180.169C121.055 174.831 142.891 172.225 164.792 172.414H164.794C186.87 172.529 208.907 174.262 230.729 177.598L230.73 177.598C254.85 181.261 278.652 186.773 301.927 194.085L302.787 194.355V193.454V190.071C303.835 186.102 304.413 182.023 304.509 177.919L304.509 177.911V177.903V166.643C304.829 152.473 301.681 138.439 295.336 125.765L295.334 125.76C289.598 114.534 281.464 104.706 271.508 96.9726L271.502 96.9679C261.463 89.3567 250.133 83.6195 238.056 80.032C225.539 76.261 212.534 74.3611 199.461 74.394C186.911 74.3824 174.402 75.8332 162.187 78.7172C150.475 81.4437 139.315 86.1495 129.187 92.6319C119.464 98.8495 111.145 107.026 104.76 116.641L104.759 116.641L104.754 116.648C98.2514 126.745 94.6402 138.426 94.3067 150.423H16.3189C18.0219 125.473 24.167 103.663 34.7375 84.9769L34.7415 84.9697C44.7803 66.6978 58.5388 50.7344 75.1288 38.1101C91.8272 25.6011 110.604 16.1411 130.594 10.1664L130.598 10.1652C151.264 3.84911 172.758 0.657656 194.368 0.696685L194.374 0.69665C218.572 0.539232 242.656 4.0216 265.819 11.027L265.823 11.0284C288.06 17.5697 308.535 29.0424 325.725 44.5928C342.915 60.1432 356.377 79.3707 365.109 100.844L365.114 100.857C375.108 124.049 380.42 152.302 381.027 185.636V189.935V190.689L381.774 190.591C390.399 189.457 399.187 188.02 408.138 186.279C416.838 184.586 425.924 182.631 435.397 180.411V260.209L382.346 268.707ZM303.697 271.228L303.696 270.618L303.088 270.57C296.846 270.079 290.674 268.925 284.676 267.127L284.665 267.123L284.653 267.12C275.712 264.78 265.345 262.342 253.557 259.733C241.759 257.122 228.931 254.684 215.542 252.346C202.506 250.07 189.301 248.907 176.067 248.867L176.061 248.867C165.492 248.932 154.95 249.932 144.557 251.854C133.611 253.777 123.05 257.465 113.287 262.774C104.003 267.783 95.8513 274.651 89.3401 282.951L89.3356 282.957L89.3311 282.963C82.6944 291.824 79.2961 302.692 79.7027 313.755C79.6033 323.533 82.5026 333.106 88.0101 341.184L88.013 341.189C93.9561 349.762 101.546 357.066 110.34 362.676C120.265 369.087 131.111 373.943 142.503 377.077C155.2 380.654 168.338 382.418 181.528 382.317C197.232 382.407 212.816 379.59 227.495 374.008C241.202 368.905 254.174 362.011 266.073 353.506C276.358 346.259 285.391 337.382 292.819 327.227L292.824 327.219C299.422 317.916 303.091 309.405 303.744 301.697L303.746 301.669L303.746 301.64L303.697 271.228Z" stroke="white" stroke-opacity="0.3" stroke-width="1.32278"/>
</svg>
