<svg width="250" height="42" viewBox="0 0 250 42" fill="none" xmlns="http://www.w3.org/2000/svg">
<g clip-path="url(#clip0_1_3098)">
<path d="M29.3357 28.141V32.7173C29.3357 34.2118 29.3252 35.5419 29.3042 36.7074C29.2832 37.8729 29.2733 38.8145 29.2744 39.532V40.6677H23.6225V37.4582C22.5033 38.8672 21.0158 39.9387 19.3249 40.554C17.674 41.1561 15.9306 41.4653 14.1734 41.4675C12.7171 41.4638 11.2692 41.2468 9.8758 40.8235C8.48231 40.4133 7.17287 39.7585 6.00868 38.8897C4.86236 38.0309 3.91905 36.9304 3.2457 35.6661C2.54577 34.3758 2.1958 32.8713 2.1958 31.1528C2.1958 29.3946 2.49269 27.8779 3.08646 26.6027C3.63825 25.3848 4.47922 24.3203 5.53623 23.5016C6.63531 22.6778 7.88838 22.0827 9.22137 21.7516C10.7361 21.3709 12.2932 21.1851 13.8549 21.1986C15.4273 21.2068 16.9971 21.3302 18.5515 21.5678C20.2694 21.8288 21.9647 22.2213 23.6225 22.7421V22.4953C23.6971 22.2148 23.7382 21.9263 23.745 21.6361V20.8346C23.7677 19.8342 23.5454 18.8435 23.0975 17.9487C22.6927 17.1564 22.1186 16.4627 21.4159 15.9169C20.7063 15.379 19.9055 14.9735 19.0519 14.7199C18.1661 14.453 17.2456 14.3186 16.3204 14.3209C15.4314 14.3201 14.5452 14.4229 13.6799 14.6272C12.8521 14.8199 12.0633 15.1525 11.3474 15.6107C10.6614 16.0494 10.0744 16.6264 9.62383 17.3047C9.15769 18.0284 8.90257 18.8678 8.88715 19.7285H3.24395C3.3606 17.9272 3.80039 16.3521 4.56332 15.0034C5.28053 13.698 6.26351 12.5575 7.44879 11.6556C8.64095 10.7625 9.98151 10.0871 11.4087 9.66056C12.8831 9.20995 14.4165 8.98226 15.9582 8.98504C17.684 8.97382 19.4017 9.22218 21.0537 9.72181C22.6421 10.1891 24.1047 11.0086 25.3326 12.1194C26.5605 13.2301 27.5221 14.6036 28.1458 16.1375C28.8597 17.7942 29.2383 19.8102 29.2814 22.1856V22.4918C29.8939 22.4113 30.518 22.3093 31.1537 22.1856C31.7895 22.0619 32.4544 21.9184 33.1485 21.7551V27.5302L29.3357 28.141ZM23.6872 28.274C23.2399 28.2388 22.7976 28.1561 22.3678 28.0272C21.7327 27.861 20.996 27.6877 20.1578 27.5022C19.3196 27.3167 18.408 27.1434 17.4561 26.9772C16.5315 26.8158 15.5949 26.7333 14.6563 26.7304C13.9073 26.7351 13.1601 26.806 12.4236 26.9422C11.6499 27.078 10.9035 27.3387 10.2135 27.714C9.55888 28.0671 8.98406 28.5515 8.52494 29.1367C8.05912 29.7586 7.82071 30.5215 7.8495 31.298C7.84231 31.9842 8.04568 32.6561 8.4322 33.2231C8.85139 33.8278 9.38674 34.343 10.007 34.7386C10.709 35.192 11.4761 35.5355 12.2818 35.7571C13.1807 36.0104 14.1109 36.1353 15.0448 36.1281C16.1561 36.1345 17.259 35.9352 18.2977 35.5401C19.2689 35.1786 20.1879 34.6902 21.031 34.0876C21.7583 33.5751 22.3973 32.9473 22.9225 32.2291C23.3892 31.571 23.6452 30.9737 23.6907 30.437L23.6872 28.274Z" fill="white"/>
<path d="M40.9459 17.765C40.9459 18.9515 41.437 19.8516 42.4193 20.4653C43.5561 21.1447 44.7874 21.6519 46.0729 21.9704C47.5253 22.36 49.1001 22.7182 50.7975 23.0449C52.4242 23.3509 54.0097 23.8454 55.522 24.5184C56.925 25.1364 58.1726 26.0595 59.1739 27.2205C60.1561 28.3662 60.6473 29.9214 60.6473 31.8861C60.6473 33.5194 60.2973 34.9416 59.5974 36.1527C58.9185 37.3431 57.9874 38.3705 56.8694 39.1627C55.688 39.9867 54.3671 40.5897 52.9707 40.9425C51.5078 41.3296 50.0009 41.5254 48.4877 41.5253C46.848 41.5246 45.2163 41.2972 43.6389 40.8498C42.11 40.4309 40.6588 39.7678 39.3413 38.8862C38.0942 38.0499 37.0464 36.9493 36.2721 35.6627C35.494 34.3723 35.105 32.8678 35.105 31.1493C35.1062 30.9646 35.1167 30.78 35.1365 30.5963C35.1557 30.3933 35.1662 30.1273 35.1662 29.7983H40.323C40.2829 29.9592 40.2624 30.1243 40.2617 30.29V30.7818C40.2445 31.667 40.5018 32.5357 40.9984 33.2686C41.4976 33.992 42.147 34.599 42.9022 35.0484C43.7228 35.5372 44.6124 35.8995 45.541 36.1229C46.5248 36.368 47.535 36.4914 48.5489 36.4904C49.418 36.4945 50.2842 36.3917 51.1282 36.1842C51.8915 36.0011 52.6254 35.7118 53.3085 35.3249C53.908 34.9857 54.4306 34.5256 54.8431 33.9739C55.2324 33.4392 55.4369 32.7923 55.4258 32.1311C55.4449 31.6227 55.3195 31.1193 55.0639 30.6794C54.8084 30.2395 54.4333 29.8812 53.9821 29.646C52.8555 29.0301 51.648 28.5753 50.395 28.295C48.9625 27.945 47.4075 27.6072 45.7299 27.2817C44.1179 26.9758 42.5502 26.4703 41.0632 25.7767C39.6746 25.1358 38.4476 24.1915 37.4725 23.0134C36.5101 21.8467 36.0289 20.2402 36.0289 18.1938C36.0289 16.6397 36.3363 15.2788 36.9511 14.1109C37.5375 12.9751 38.3753 11.9881 39.4008 11.2251C40.4661 10.4476 41.6612 9.86565 42.9302 9.50658C44.2751 9.11377 45.6692 8.91518 47.0703 8.91682C48.62 8.91539 50.1613 9.14302 51.6444 9.59233C53.0919 10.0178 54.4539 10.693 55.669 11.5874C56.8606 12.4735 57.8368 13.6173 58.5247 14.9335C59.2398 16.2845 59.5979 17.8397 59.5991 19.5991V20.6491H54.6278C54.6681 20.4443 54.6978 20.2396 54.7188 20.0348C54.7398 19.8307 54.7503 19.6257 54.7503 19.4206C54.7633 18.572 54.5514 17.7351 54.1361 16.995C53.7285 16.2823 53.1613 15.6737 52.479 15.217C51.7545 14.7329 50.9561 14.37 50.115 14.1424C49.2258 13.8947 48.3067 13.7704 47.3835 13.7732C45.6232 13.7732 44.1394 14.1419 42.932 14.8792C41.7246 15.6165 41.0626 16.5785 40.9459 17.765Z" fill="white"/>
<path d="M85.3236 21.0796V26.7287H66.7754V21.0796H85.3236Z" fill="white"/>
<path d="M97.2906 17.765C97.2906 18.9516 97.7817 19.8517 98.764 20.4653C99.9003 21.1445 101.131 21.6516 102.416 21.9704C103.868 22.36 105.443 22.7182 107.14 23.0449C108.767 23.3505 110.353 23.845 111.865 24.5184C113.268 25.1366 114.516 26.0596 115.519 27.2205C116.5 28.3662 116.991 29.9214 116.992 31.8861C116.992 33.5195 116.642 34.9417 115.942 36.1527C115.262 37.3436 114.33 38.371 113.211 39.1627C112.033 39.985 110.717 40.5879 109.326 40.9425C107.864 41.3296 106.357 41.5255 104.845 41.5253C103.204 41.5246 101.572 41.2972 99.9941 40.8498C98.4657 40.4312 97.015 39.7681 95.6983 38.8862C94.4502 38.0504 93.4017 36.9498 92.6273 35.6627C91.8504 34.3723 91.4619 32.8679 91.4619 31.1493C91.4625 30.9646 91.4724 30.78 91.4917 30.5963C91.5127 30.3933 91.5232 30.1273 91.5232 29.7983H96.6799C96.639 29.959 96.6184 30.1242 96.6187 30.2901V30.7818C96.6014 31.667 96.8588 32.5357 97.3553 33.2686C97.8544 33.9914 98.5031 34.5984 99.2574 35.0484C100.079 35.5369 100.969 35.8992 101.898 36.1229C102.882 36.3682 103.892 36.4916 104.906 36.4904C105.775 36.4944 106.641 36.3916 107.485 36.1842C108.248 36.0008 108.981 35.7115 109.664 35.3249C110.264 34.9867 110.787 34.5264 111.198 33.9739C111.588 33.4395 111.793 32.7926 111.783 32.1311C111.802 31.6227 111.676 31.1193 111.421 30.6794C111.165 30.2395 110.79 29.8812 110.339 29.646C109.211 29.0301 108.003 28.5753 106.748 28.295C105.316 27.945 103.76 27.6072 102.082 27.2817C100.47 26.9758 98.903 26.4703 97.4166 25.7767C96.0278 25.1355 94.8003 24.1912 93.8242 23.0134C92.8688 21.8479 92.3911 20.2407 92.3911 18.192C92.3911 16.638 92.6979 15.2771 93.3115 14.1092C93.8984 12.9737 94.7362 11.9868 95.7612 11.2234C96.8266 10.4458 98.0216 9.86391 99.2907 9.50485C100.636 9.11235 102.031 8.91434 103.432 8.91683C104.982 8.91541 106.523 9.14304 108.007 9.59235C109.454 10.0182 110.816 10.6933 112.031 11.5874C113.223 12.4731 114.198 13.617 114.885 14.9335C115.6 16.2845 115.958 17.8397 115.96 19.5991V20.6491H110.985C111.025 20.4443 111.055 20.2396 111.076 20.0348C111.099 19.8297 111.112 19.6235 111.114 19.4171C111.126 18.5686 110.915 17.7319 110.5 16.9915C110.091 16.2797 109.523 15.6723 108.839 15.217C108.115 14.733 107.317 14.37 106.475 14.1424C105.586 13.8948 104.667 13.7706 103.744 13.7732C101.984 13.7732 100.5 14.1419 99.2924 14.8792C98.085 15.6166 97.4178 16.5785 97.2906 17.765Z" fill="white"/>
<path d="M147.268 28.141V32.7173C147.268 34.2119 147.257 35.5419 147.236 36.7074C147.215 37.873 147.205 38.8145 147.206 39.532V40.6678H141.561V37.4582C140.442 38.8672 138.955 39.9387 137.264 40.554C135.613 41.1561 133.87 41.4653 132.112 41.4675C130.656 41.4638 129.208 41.2469 127.815 40.8235C126.421 40.4133 125.112 39.7586 123.948 38.8897C122.801 38.031 121.858 36.9304 121.185 35.6662C120.485 34.3758 120.135 32.8713 120.135 31.1528C120.135 29.3946 120.432 27.8779 121.025 26.6027C121.577 25.3848 122.418 24.3203 123.475 23.5016C124.574 22.6778 125.827 22.0827 127.16 21.7516C128.675 21.3709 130.232 21.1851 131.794 21.1986C133.365 21.2081 134.934 21.3327 136.487 21.5713C138.206 21.831 139.902 22.2224 141.561 22.7421V22.4954C141.636 22.2148 141.677 21.9263 141.684 21.6361V20.8346C141.707 19.8342 141.484 18.8435 141.036 17.9488C140.63 17.1557 140.053 16.462 139.348 15.917C138.638 15.379 137.837 14.9735 136.984 14.7199C136.098 14.4531 135.178 14.3186 134.252 14.3209C133.363 14.3201 132.477 14.4229 131.612 14.6272C130.784 14.8199 129.995 15.1525 129.279 15.6107C128.596 16.0502 128.011 16.6271 127.563 17.3047C127.097 18.0285 126.842 18.8678 126.826 19.7286H121.176C121.298 17.9272 121.738 16.3521 122.495 15.0034C123.213 13.6987 124.196 12.5588 125.381 11.6574C126.573 10.7643 127.913 10.0889 129.341 9.66233C130.815 9.21172 132.348 8.98403 133.89 8.98681C135.616 8.97559 137.334 9.22395 138.986 9.72358C140.574 10.1908 142.037 11.0103 143.265 12.1211C144.492 13.2319 145.454 14.6053 146.078 16.1392C146.792 17.7959 147.17 19.812 147.213 22.1874V22.4936C147.826 22.4131 148.45 22.311 149.086 22.1874C149.721 22.0637 150.386 21.9202 151.081 21.7568V27.532L147.268 28.141ZM141.619 28.274C141.172 28.2388 140.73 28.1561 140.3 28.0272C139.665 27.861 138.928 27.6877 138.09 27.5022C137.252 27.3167 136.349 27.1435 135.388 26.9772C134.463 26.8158 133.527 26.7333 132.588 26.7305C131.842 26.7355 131.097 26.8064 130.363 26.9422C129.589 27.0781 128.843 27.3387 128.152 27.714C127.498 28.0672 126.923 28.5515 126.464 29.1368C125.998 29.7587 125.76 30.5215 125.788 31.2981C125.781 31.9842 125.985 32.6561 126.371 33.2231C126.79 33.8278 127.326 34.343 127.946 34.7386C128.648 35.1921 129.415 35.5355 130.221 35.7572C131.12 36.0104 132.05 36.1353 132.984 36.1282C134.095 36.1346 135.198 35.9352 136.237 35.5401C137.208 35.1786 138.127 34.6902 138.97 34.0876C139.701 33.5776 140.343 32.9516 140.872 32.2343C141.339 31.5763 141.595 30.979 141.64 30.4423L141.619 28.274Z" fill="white"/>
<path d="M161.999 40.7273H156.598V2.10742H161.999V40.7273Z" fill="white"/>
<path d="M181.583 41.4028C179.399 41.4171 177.236 40.9779 175.23 40.113C173.287 39.2823 171.516 38.0952 170.01 36.613C168.514 35.1359 167.316 33.385 166.481 31.4556C165.63 29.4663 165.191 27.3252 165.191 25.1616C165.191 22.998 165.63 20.8568 166.481 18.8676C167.316 16.9387 168.514 15.1884 170.01 13.7119C171.517 12.2305 173.287 11.0434 175.23 10.2119C177.229 9.36186 179.38 8.92377 181.553 8.92377C183.725 8.92377 185.876 9.36186 187.876 10.2119C191.777 11.8723 194.888 14.9731 196.562 18.8693C197.413 20.8586 197.851 22.9997 197.851 25.1633C197.851 27.327 197.413 29.4681 196.562 31.4573C194.889 35.3535 191.777 38.454 187.876 40.113C185.89 40.9735 183.747 41.4127 181.583 41.4028ZM181.583 14.6955C180.15 14.6868 178.73 14.9684 177.408 15.5232C174.861 16.5709 172.815 18.5612 171.699 21.0796C171.132 22.3768 170.84 23.7769 170.84 25.1922C170.84 26.6075 171.132 28.0076 171.699 29.3048C172.256 30.5508 173.037 31.6847 174.001 32.6509C176.018 34.6477 178.745 35.7624 181.583 35.7502C183.007 35.7608 184.417 35.479 185.727 34.9224C186.988 34.3878 188.135 33.6154 189.104 32.6474C190.066 31.6853 190.838 30.55 191.379 29.3013C191.925 27.9989 192.206 26.6009 192.206 25.1887C192.206 23.7765 191.925 22.3785 191.379 21.0761C190.842 19.8343 190.07 18.7086 189.104 17.7615C188.128 16.8105 186.982 16.0502 185.727 15.5197C184.417 14.9631 183.007 14.6814 181.583 14.692V14.6955Z" fill="white"/>
<path d="M208.349 12.9752C208.766 12.1556 209.365 11.4416 210.099 10.8874C210.775 10.3791 211.519 9.96683 212.309 9.66236C213.022 9.38736 213.763 9.19136 214.519 9.07785C215.098 8.98767 215.683 8.9368 216.269 8.9256C219.215 8.9256 221.589 9.29369 223.391 10.0299C225.192 10.7661 226.501 11.7076 227.319 12.8544C227.881 12.0924 228.579 11.4399 229.377 10.9294C230.139 10.4372 230.952 10.0266 231.8 9.70437C232.535 9.42065 233.297 9.21477 234.075 9.0901C234.583 9.00601 235.095 8.95515 235.61 8.93785C237.737 8.93785 239.569 9.21377 241.104 9.76562C242.594 10.2872 243.904 11.2249 244.878 12.4677C245.862 13.7172 246.589 15.3342 247.059 17.3188C247.529 19.3033 247.762 21.7079 247.759 24.5324V40.68H242.234V24.3347C242.24 23.1144 242.181 21.8948 242.059 20.6806C241.961 19.6073 241.681 18.5586 241.23 17.5795C240.809 16.6912 240.15 15.937 239.326 15.4007C238.489 14.8477 237.333 14.5304 235.858 14.4487C234.996 14.4546 234.139 14.5789 233.31 14.818C232.432 15.0623 231.616 15.4913 230.917 16.0763C230.147 16.7398 229.538 17.5691 229.135 18.5018C228.669 19.5262 228.435 20.7949 228.435 22.3081V40.666H222.909V22.3081C222.907 21.4966 222.848 20.6861 222.734 19.8826C222.606 19.0077 222.316 18.1644 221.879 17.3958C221.418 16.5851 220.764 15.9 219.977 15.4007C219.137 14.8477 217.981 14.5304 216.508 14.4487C215.512 14.4505 214.521 14.5847 213.56 14.8477C212.586 15.1143 211.686 15.5997 210.928 16.267C210.149 16.9425 209.525 17.884 209.056 19.0916C208.587 20.2991 208.354 21.8444 208.356 23.7274V40.7956H202.771V10.0281H208.356L208.349 12.9752Z" fill="white"/>
</g>
<defs>
<clipPath id="clip0_1_3098">
<rect width="250" height="41.6667" fill="white" transform="translate(0 0.166626)"/>
</clipPath>
</defs>
</svg>
