<svg width="32" height="33" viewBox="0 0 32 33" fill="none" xmlns="http://www.w3.org/2000/svg">
<g id="fluent:payment-32-regular">
<path id="Vector" d="M0 8.82145C0 7.45748 0.541835 6.14937 1.50631 5.1849C2.47078 4.22042 3.77889 3.67859 5.14286 3.67859H26.8571C28.2211 3.67859 29.5292 4.22042 30.4937 5.1849C31.4582 6.14937 32 7.45748 32 8.82145V23.6786C32 25.0426 31.4582 26.3507 30.4937 27.3151C29.5292 28.2796 28.2211 28.8214 26.8571 28.8214H5.14286C3.77889 28.8214 2.47078 28.2796 1.50631 27.3151C0.541835 26.3507 0 25.0426 0 23.6786V8.82145ZM5.14286 5.9643C4.3851 5.9643 3.65837 6.26532 3.12255 6.80114C2.58673 7.33696 2.28571 8.06368 2.28571 8.82145V10.5357H29.7143V8.82145C29.7143 8.06368 29.4133 7.33696 28.8774 6.80114C28.3416 6.26532 27.6149 5.9643 26.8571 5.9643H5.14286ZM2.28571 23.6786C2.28571 24.4363 2.58673 25.1631 3.12255 25.6989C3.65837 26.2347 4.3851 26.5357 5.14286 26.5357H26.8571C27.6149 26.5357 28.3416 26.2347 28.8774 25.6989C29.4133 25.1631 29.7143 24.4363 29.7143 23.6786V12.8214H2.28571V23.6786ZM21.7143 19.6786H25.1429C25.446 19.6786 25.7367 19.799 25.951 20.0133C26.1653 20.2276 26.2857 20.5183 26.2857 20.8214C26.2857 21.1245 26.1653 21.4152 25.951 21.6296C25.7367 21.8439 25.446 21.9643 25.1429 21.9643H21.7143C21.4112 21.9643 21.1205 21.8439 20.9062 21.6296C20.6918 21.4152 20.5714 21.1245 20.5714 20.8214C20.5714 20.5183 20.6918 20.2276 20.9062 20.0133C21.1205 19.799 21.4112 19.6786 21.7143 19.6786Z" fill="url(#paint0_linear_1_4680)"/>
</g>
<defs>
<linearGradient id="paint0_linear_1_4680" x1="0" y1="3.67859" x2="24.8592" y2="8.70673" gradientUnits="userSpaceOnUse">
<stop stop-color="#2ACED0"/>
<stop offset="1" stop-color="#2ACED0"/>
</linearGradient>
</defs>
</svg>
