<svg width="24" height="25" viewBox="0 0 24 25" fill="none" xmlns="http://www.w3.org/2000/svg">
<g clip-path="url(#clip0_1_2474)">
<path d="M13.3385 12.4534L21.1132 4.67871C21.2668 4.4993 21.3471 4.26852 21.338 4.03249C21.3289 3.79646 21.231 3.57256 21.064 3.40553C20.897 3.23851 20.6731 3.14066 20.437 3.13155C20.201 3.12243 19.9702 3.20271 19.7908 3.35636L12.0161 11.1311L4.2414 3.34698C4.0648 3.17038 3.82528 3.07117 3.57553 3.07117C3.32578 3.07117 3.08626 3.17038 2.90966 3.34698C2.73307 3.52358 2.63385 3.7631 2.63385 4.01285C2.63385 4.26259 2.73307 4.50211 2.90966 4.67871L10.6938 12.4534L2.90966 20.2281C2.81149 20.3122 2.73175 20.4157 2.67546 20.532C2.61917 20.6484 2.58754 20.7751 2.58255 20.9043C2.57756 21.0334 2.59932 21.1622 2.64647 21.2826C2.69362 21.4029 2.76514 21.5122 2.85654 21.6036C2.94793 21.695 3.05724 21.7665 3.17758 21.8137C3.29793 21.8608 3.42673 21.8826 3.55589 21.8776C3.68505 21.8726 3.81178 21.841 3.92813 21.7847C4.04449 21.7284 4.14795 21.6487 4.23202 21.5505L12.0161 13.7758L19.7908 21.5505C19.9702 21.7041 20.201 21.7844 20.437 21.7753C20.6731 21.7662 20.897 21.6683 21.064 21.5013C21.231 21.3343 21.3289 21.1104 21.338 20.8744C21.3471 20.6383 21.2668 20.4075 21.1132 20.2281L13.3385 12.4534Z" fill="#00040F"/>
</g>
<defs>
<clipPath id="clip0_1_2474">
<rect width="24" height="24" fill="white" transform="translate(0 0.459595)"/>
</clipPath>
</defs>
</svg>
