<svg width="24" height="24" viewBox="0 0 24 24" fill="none" xmlns="http://www.w3.org/2000/svg">
<path d="M18 23.25H6C5.40326 23.25 4.83097 23.0129 4.40901 22.591C3.98705 22.169 3.75 21.5967 3.75 21V6.75C3.75 6.55109 3.82902 6.36032 3.96967 6.21967C4.11032 6.07902 4.30109 6 4.5 6C4.69891 6 4.88968 6.07902 5.03033 6.21967C5.17098 6.36032 5.25 6.55109 5.25 6.75V21C5.25 21.1989 5.32902 21.3897 5.46967 21.5303C5.61032 21.671 5.80109 21.75 6 21.75H18C18.1989 21.75 18.3897 21.671 18.5303 21.5303C18.671 21.3897 18.75 21.1989 18.75 21V6.75C18.75 6.55109 18.829 6.36032 18.9697 6.21967C19.1103 6.07902 19.3011 6 19.5 6C19.6989 6 19.8897 6.07902 20.0303 6.21967C20.171 6.36032 20.25 6.55109 20.25 6.75V21C20.25 21.5967 20.0129 22.169 19.591 22.591C19.169 23.0129 18.5967 23.25 18 23.25Z" fill="#8B8B8B"/>
<path d="M21 5.25H3C2.80109 5.25 2.61032 5.17098 2.46967 5.03033C2.32902 4.88968 2.25 4.69891 2.25 4.5C2.25 4.30109 2.32902 4.11032 2.46967 3.96967C2.61032 3.82902 2.80109 3.75 3 3.75H21C21.1989 3.75 21.3897 3.82902 21.5303 3.96967C21.671 4.11032 21.75 4.30109 21.75 4.5C21.75 4.69891 21.671 4.88968 21.5303 5.03033C21.3897 5.17098 21.1989 5.25 21 5.25Z" fill="#8B8B8B"/>
<path d="M15 5.25C14.8011 5.25 14.6103 5.17098 14.4697 5.03033C14.329 4.88968 14.25 4.69891 14.25 4.5V2.25H9.75V4.5C9.75 4.69891 9.67098 4.88968 9.53033 5.03033C9.38968 5.17098 9.19891 5.25 9 5.25C8.80109 5.25 8.61032 5.17098 8.46967 5.03033C8.32902 4.88968 8.25 4.69891 8.25 4.5V1.5C8.25 1.30109 8.32902 1.11032 8.46967 0.96967C8.61032 0.829018 8.80109 0.75 9 0.75H15C15.1989 0.75 15.3897 0.829018 15.5303 0.96967C15.671 1.11032 15.75 1.30109 15.75 1.5V4.5C15.75 4.69891 15.671 4.88968 15.5303 5.03033C15.3897 5.17098 15.1989 5.25 15 5.25Z" fill="#8B8B8B"/>
<path d="M12 19.5C11.8011 19.5 11.6103 19.421 11.4697 19.2803C11.329 19.1397 11.25 18.9489 11.25 18.75V8.25C11.25 8.05109 11.329 7.86032 11.4697 7.71967C11.6103 7.57902 11.8011 7.5 12 7.5C12.1989 7.5 12.3897 7.57902 12.5303 7.71967C12.671 7.86032 12.75 8.05109 12.75 8.25V18.75C12.75 18.9489 12.671 19.1397 12.5303 19.2803C12.3897 19.421 12.1989 19.5 12 19.5Z" fill="#8B8B8B"/>
<path d="M15.75 18C15.5511 18 15.3603 17.921 15.2197 17.7803C15.079 17.6397 15 17.4489 15 17.25V9.75C15 9.55109 15.079 9.36032 15.2197 9.21967C15.3603 9.07902 15.5511 9 15.75 9C15.9489 9 16.1397 9.07902 16.2803 9.21967C16.421 9.36032 16.5 9.55109 16.5 9.75V17.25C16.5 17.4489 16.421 17.6397 16.2803 17.7803C16.1397 17.921 15.9489 18 15.75 18Z" fill="#8B8B8B"/>
<path d="M8.25 18C8.05109 18 7.86032 17.921 7.71967 17.7803C7.57902 17.6397 7.5 17.4489 7.5 17.25V9.75C7.5 9.55109 7.57902 9.36032 7.71967 9.21967C7.86032 9.07902 8.05109 9 8.25 9C8.44891 9 8.63968 9.07902 8.78033 9.21967C8.92098 9.36032 9 9.55109 9 9.75V17.25C9 17.4489 8.92098 17.6397 8.78033 17.7803C8.63968 17.921 8.44891 18 8.25 18Z" fill="#8B8B8B"/>
</svg>
