<svg width="25" height="24" viewBox="0 0 25 24" fill="none" xmlns="http://www.w3.org/2000/svg">
<path d="M19.3245 4.47113L16.3128 11.1562H15.4364L18.6484 4.0393H13.6891V20.619C14.7108 20.6565 19.9255 22.3487 19.9255 22.3487V23.1629H5.90891V22.2936C5.90891 22.2936 11.2394 20.6182 12.0424 20.6182V4.0393H7.24112L10.4539 11.1562H9.57749L6.56584 4.47113L3.55418 11.1562H2.67775L5.90891 3.99939V3.17404H11.3C11.3 2.09406 12.024 1.21204 12.8685 1.21204C13.7617 1.21204 14.437 2.14435 14.437 3.17404H19.9271V3.88205L23.2125 11.1562H22.3361L19.3245 4.47113ZM10.509 11.9711C10.509 14.1207 9.01794 16.1873 6.56664 16.1873C4.1704 16.1873 2.62427 14.1207 2.62427 11.9711C2.62347 11.9743 10.509 11.9743 10.509 11.9711ZM15.4914 11.9711C15.4914 11.9751 23.377 11.9751 23.377 11.9711C23.377 14.1207 21.8859 16.1873 19.4346 16.1873C17.0376 16.1873 15.4914 14.1207 15.4914 11.9711Z" fill="#273267"/>
</svg>
