<svg width="24" height="25" viewBox="0 0 24 25" fill="none" xmlns="http://www.w3.org/2000/svg">
<g clip-path="url(#clip0_1_3317)">
<path d="M23.0769 5.78829H7.38456C7.13975 5.78829 6.90496 5.69104 6.73185 5.51793C6.55874 5.34482 6.46149 5.11003 6.46149 4.86522C6.46149 4.6204 6.55874 4.38561 6.73185 4.2125C6.90496 4.03939 7.13975 3.94214 7.38456 3.94214H23.0769C23.3217 3.94214 23.5565 4.03939 23.7296 4.2125C23.9027 4.38561 24 4.6204 24 4.86522C24 5.11003 23.9027 5.34482 23.7296 5.51793C23.5565 5.69104 23.3217 5.78829 23.0769 5.78829Z" fill="#00040F"/>
<path d="M3.69231 5.78829H0.923077C0.678262 5.78829 0.443473 5.69104 0.270363 5.51793C0.0972524 5.34482 0 5.11003 0 4.86522C0 4.6204 0.0972524 4.38561 0.270363 4.2125C0.443473 4.03939 0.678262 3.94214 0.923077 3.94214H3.69231C3.93712 3.94214 4.17191 4.03939 4.34502 4.2125C4.51813 4.38561 4.61538 4.6204 4.61538 4.86522C4.61538 5.11003 4.51813 5.34482 4.34502 5.51793C4.17191 5.69104 3.93712 5.78829 3.69231 5.78829Z" fill="#00040F"/>
<path d="M16.6154 13.1729H0.923077C0.678262 13.1729 0.443473 13.0757 0.270363 12.9026C0.0972524 12.7295 0 12.4947 0 12.2499C0 12.005 0.0972524 11.7703 0.270363 11.5971C0.443473 11.424 0.678262 11.3268 0.923077 11.3268H16.6154C16.8602 11.3268 17.095 11.424 17.2681 11.5971C17.4412 11.7703 17.5385 12.005 17.5385 12.2499C17.5385 12.4947 17.4412 12.7295 17.2681 12.9026C17.095 13.0757 16.8602 13.1729 16.6154 13.1729Z" fill="#00040F"/>
<path d="M7.38462 20.5576H0.923077C0.678262 20.5576 0.443473 20.4603 0.270363 20.2872C0.0972524 20.1141 0 19.8793 0 19.6345C0 19.3897 0.0972524 19.1549 0.270363 18.9818C0.443473 18.8087 0.678262 18.7114 0.923077 18.7114H7.38462C7.62943 18.7114 7.86422 18.8087 8.03733 18.9818C8.21044 19.1549 8.30769 19.3897 8.30769 19.6345C8.30769 19.8793 8.21044 20.1141 8.03733 20.2872C7.86422 20.4603 7.62943 20.5576 7.38462 20.5576Z" fill="#00040F"/>
<path d="M5.53852 7.63453C4.99082 7.63453 4.45541 7.47212 4.00002 7.16783C3.54462 6.86355 3.18968 6.43105 2.98008 5.92504C2.77049 5.41903 2.71565 4.86223 2.8225 4.32505C2.92935 3.78787 3.19309 3.29444 3.58038 2.90716C3.96766 2.51988 4.46109 2.25613 4.99827 2.14928C5.53545 2.04243 6.09225 2.09727 6.59826 2.30687C7.10427 2.51646 7.53676 2.8714 7.84105 3.3268C8.14534 3.7822 8.30775 4.3176 8.30775 4.8653C8.30775 5.59975 8.01599 6.30411 7.49666 6.82344C6.97733 7.34277 6.27296 7.63453 5.53852 7.63453ZM5.53852 3.94222C5.35595 3.94222 5.17748 3.99636 5.02568 4.09779C4.87389 4.19922 4.75557 4.34338 4.68571 4.51206C4.61584 4.68073 4.59756 4.86633 4.63318 5.04538C4.6688 5.22444 4.75671 5.38892 4.88581 5.51802C5.0149 5.64711 5.17938 5.73502 5.35844 5.77064C5.5375 5.80626 5.7231 5.78798 5.89177 5.71811C6.06044 5.64825 6.2046 5.52994 6.30603 5.37814C6.40746 5.22634 6.4616 5.04787 6.4616 4.8653C6.4616 4.62049 6.36434 4.3857 6.19123 4.21259C6.01812 4.03948 5.78333 3.94222 5.53852 3.94222Z" fill="#00040F"/>
<path d="M18.4614 15.0192C17.9137 15.0192 17.3783 14.8568 16.9229 14.5525C16.4675 14.2482 16.1126 13.8157 15.903 13.3097C15.6934 12.8037 15.6386 12.2469 15.7454 11.7097C15.8523 11.1725 16.116 10.6791 16.5033 10.2918C16.8906 9.90452 17.384 9.64078 17.9212 9.53392C18.4584 9.42707 19.0152 9.48191 19.5212 9.69151C20.0272 9.90111 20.4597 10.256 20.764 10.7114C21.0683 11.1668 21.2307 11.7022 21.2307 12.2499C21.2307 12.9844 20.9389 13.6888 20.4196 14.2081C19.9002 14.7274 19.1959 15.0192 18.4614 15.0192ZM18.4614 11.3269C18.2789 11.3269 18.1004 11.381 17.9486 11.4824C17.7968 11.5839 17.6785 11.728 17.6086 11.8967C17.5388 12.0654 17.5205 12.251 17.5561 12.43C17.5917 12.6091 17.6796 12.7736 17.8087 12.9027C17.9378 13.0318 18.1023 13.1197 18.2813 13.1553C18.4604 13.1909 18.646 13.1726 18.8147 13.1028C18.9833 13.0329 19.1275 12.9146 19.2289 12.7628C19.3304 12.611 19.3845 12.4325 19.3845 12.2499C19.3845 12.0051 19.2873 11.7703 19.1141 11.5972C18.941 11.4241 18.7062 11.3269 18.4614 11.3269Z" fill="#00040F"/>
<path d="M9.23072 22.4038C8.68302 22.4038 8.14761 22.2414 7.69222 21.9371C7.23682 21.6328 6.88188 21.2003 6.67228 20.6943C6.46269 20.1883 6.40785 19.6315 6.5147 19.0943C6.62155 18.5572 6.88529 18.0637 7.27258 17.6764C7.65986 17.2892 8.15329 17.0254 8.69047 16.9186C9.22765 16.8117 9.78445 16.8666 10.2905 17.0762C10.7965 17.2857 11.229 17.6407 11.5333 18.0961C11.8375 18.5515 11.9999 19.0869 11.9999 19.6346C11.9999 20.369 11.7082 21.0734 11.1889 21.5927C10.6695 22.1121 9.96517 22.4038 9.23072 22.4038ZM9.23072 18.7115C9.04815 18.7115 8.86968 18.7656 8.71788 18.8671C8.56609 18.9685 8.44777 19.1127 8.37791 19.2813C8.30804 19.45 8.28976 19.6356 8.32538 19.8147C8.361 19.9937 8.44891 20.1582 8.57801 20.2873C8.7071 20.4164 8.87158 20.5043 9.05064 20.5399C9.2297 20.5755 9.4153 20.5573 9.58397 20.4874C9.75264 20.4175 9.8968 20.2992 9.99823 20.1474C10.0997 19.9956 10.1538 19.8172 10.1538 19.6346C10.1538 19.3898 10.0565 19.155 9.88343 18.9819C9.71032 18.8088 9.47553 18.7115 9.23072 18.7115Z" fill="#00040F"/>
<path d="M23.077 13.1729H20.3077C20.0629 13.1729 19.8281 13.0757 19.655 12.9026C19.4819 12.7295 19.3846 12.4947 19.3846 12.2499C19.3846 12.005 19.4819 11.7703 19.655 11.5971C19.8281 11.424 20.0629 11.3268 20.3077 11.3268H23.077C23.3218 11.3268 23.5566 11.424 23.7297 11.5971C23.9028 11.7703 24 12.005 24 12.2499C24 12.4947 23.9028 12.7295 23.7297 12.9026C23.5566 13.0757 23.3218 13.1729 23.077 13.1729Z" fill="#00040F"/>
<path d="M23.0769 20.5576H11.0769C10.8321 20.5576 10.5973 20.4603 10.4242 20.2872C10.2511 20.1141 10.1539 19.8793 10.1539 19.6345C10.1539 19.3897 10.2511 19.1549 10.4242 18.9818C10.5973 18.8087 10.8321 18.7114 11.0769 18.7114H23.0769C23.3218 18.7114 23.5566 18.8087 23.7297 18.9818C23.9028 19.1549 24 19.3897 24 19.6345C24 19.8793 23.9028 20.1141 23.7297 20.2872C23.5566 20.4603 23.3218 20.5576 23.0769 20.5576Z" fill="#00040F"/>
</g>
<defs>
<clipPath id="clip0_1_3317">
<rect width="24" height="24" fill="white" transform="translate(0 0.25)"/>
</clipPath>
</defs>
</svg>
