<svg width="25" height="25" viewBox="0 0 25 25" fill="none" xmlns="http://www.w3.org/2000/svg">
<g clip-path="url(#clip0_454_2078)">
<path d="M23.3945 20.469H21.8945V11.8018C21.8946 11.5942 21.8515 11.3889 21.7681 11.1988C21.6846 11.0087 21.5627 10.8379 21.4098 10.6974L13.9098 3.62117C13.9062 3.61798 13.9027 3.61453 13.8995 3.61086C13.6234 3.35974 13.2636 3.22058 12.8903 3.22058C12.5171 3.22058 12.1572 3.35974 11.8811 3.61086L11.8708 3.62117L4.37922 10.6974C4.2264 10.8379 4.10442 11.0087 4.02099 11.1988C3.93756 11.3889 3.8945 11.5942 3.89453 11.8018V20.469H2.39453C2.19562 20.469 2.00485 20.548 1.8642 20.6887C1.72355 20.8293 1.64453 21.0201 1.64453 21.219C1.64453 21.4179 1.72355 21.6087 1.8642 21.7493C2.00485 21.89 2.19562 21.969 2.39453 21.969H23.3945C23.5934 21.969 23.7842 21.89 23.9249 21.7493C24.0655 21.6087 24.1445 21.4179 24.1445 21.219C24.1445 21.0201 24.0655 20.8293 23.9249 20.6887C23.7842 20.548 23.5934 20.469 23.3945 20.469ZM5.39453 11.8018L5.40484 11.7924L12.8945 4.71899L20.3852 11.7905L20.3955 11.7999V20.469H15.8945V15.969C15.8945 15.5712 15.7365 15.1896 15.4552 14.9083C15.1739 14.627 14.7924 14.469 14.3945 14.469H11.3945C10.9967 14.469 10.6152 14.627 10.3339 14.9083C10.0526 15.1896 9.89453 15.5712 9.89453 15.969V20.469H5.39453V11.8018ZM14.3945 20.469H11.3945V15.969H14.3945V20.469Z" fill="#273267"/>
</g>
<defs>
<clipPath id="clip0_454_2078">
<rect width="24" height="24" fill="white" transform="translate(0.894531 0.968994)"/>
</clipPath>
</defs>
</svg>
