<svg width="24" height="25" viewBox="0 0 24 25" fill="none" xmlns="http://www.w3.org/2000/svg">
<path d="M15.8909 3.96576C16.5619 3.29504 17.472 2.91818 18.421 2.91809C19.37 2.918 20.2802 3.29468 20.9514 3.96526C21.6225 4.63585 21.9996 5.54541 21.9997 6.49385C21.9998 7.4423 21.6229 8.35194 20.9519 9.02266L20.0599 9.91511L14.9999 4.85721L15.8909 3.96576ZM13.9399 5.91756L3.93987 15.9104C3.53366 16.3164 3.24808 16.827 3.11487 17.3855L2.01987 21.9847C1.99022 22.1093 1.993 22.2394 2.02794 22.3626C2.06288 22.4857 2.12883 22.5979 2.21948 22.6884C2.31013 22.7789 2.42246 22.8447 2.54577 22.8795C2.66908 22.9143 2.79925 22.9169 2.92387 22.8871L7.52487 21.7918C8.08405 21.6589 8.59536 21.3734 9.00187 20.9673L18.9999 10.9745L13.9399 5.91756Z" fill="url(#paint0_linear_1_4250)"/>
<defs>
<linearGradient id="paint0_linear_1_4250" x1="1.99951" y1="2.91809" x2="17.7735" y2="5.42625" gradientUnits="userSpaceOnUse">
<stop stop-color="#2ACED0"/>
<stop offset="1" stop-color="#2ACED0"/>
</linearGradient>
</defs>
</svg>
