<svg width="24" height="25" viewBox="0 0 24 25" fill="none" xmlns="http://www.w3.org/2000/svg">
<g clip-path="url(#clip0_1_4189)">
<path d="M13.3385 12.2939L21.1132 4.51917C21.2669 4.33976 21.3472 4.10898 21.338 3.87294C21.3289 3.63691 21.2311 3.41301 21.0641 3.24599C20.897 3.07896 20.6731 2.98112 20.4371 2.972C20.2011 2.96288 19.9703 3.04317 19.7909 3.19681L12.0162 10.9715L4.24146 3.18743C4.06486 3.01083 3.82534 2.91162 3.57559 2.91162C3.32584 2.91162 3.08632 3.01083 2.90973 3.18743C2.73313 3.36403 2.63391 3.60355 2.63391 3.8533C2.63391 4.10305 2.73313 4.34257 2.90973 4.51917L10.6938 12.2939L2.90973 20.0686C2.81155 20.1527 2.73182 20.2561 2.67552 20.3725C2.61923 20.4888 2.5876 20.6156 2.58261 20.7447C2.57762 20.8739 2.59938 21.0027 2.64653 21.123C2.69368 21.2434 2.7652 21.3527 2.8566 21.4441C2.94799 21.5355 3.0573 21.607 3.17765 21.6541C3.29799 21.7013 3.42679 21.723 3.55595 21.7181C3.68511 21.7131 3.81184 21.6814 3.92819 21.6251C4.04455 21.5689 4.14801 21.4891 4.23208 21.3909L12.0162 13.6162L19.7909 21.3909C19.9703 21.5446 20.2011 21.6249 20.4371 21.6158C20.6731 21.6066 20.897 21.5088 21.0641 21.3418C21.2311 21.1747 21.3289 20.9508 21.338 20.7148C21.3472 20.4788 21.2669 20.248 21.1132 20.0686L13.3385 12.2939Z" fill="#00040F"/>
</g>
<defs>
<clipPath id="clip0_1_4189">
<rect width="24" height="24" fill="white" transform="translate(0 0.300049)"/>
</clipPath>
</defs>
</svg>
